# xmcd CD database file
#
# Track frame offsets:
#	150
#	19350
#	36900
#	56668
#	72371
#	89601
#	106971
#	117347
#
# Disc length: 1789 seconds
#
# Revision: 0
# Processed by: cddbd v1.5.1PL0 Copyright (c) Steve Scherf et al.
# Submitted via: CDex 1.51
#
DISCID=7006fb08
DTITLE=Eddie Friel - Eddie Friel
DYEAR=2000
DGENRE=Jazz
TTITLE0=Dancing inside your own head
TTITLE1=Missing you
TTITLE2=Tokyo rose
TTITLE3=Jericho
TTITLE4=Building bridges
TTITLE5=Except when you leave
TTITLE6=Memories
TTITLE7=Strange world
EXTD=YEAR: 2000
EXTT0=
EXTT1=
EXTT2=
EXTT3=
EXTT4=
EXTT5=
EXTT6=
EXTT7=
PLAYORDER=
